<?xml version="1.0" encoding="UTF-8" standalone="no"?>
<!DOCTYPE svg PUBLIC "-//W3C//DTD SVG 1.1//EN"
 "http://www.w3.org/Graphics/SVG/1.1/DTD/svg11.dtd">
<!-- Generated by graphviz version 2.40.1 (20161225.0304)
 -->
<!-- Title: Tree Pages: 1 -->
<svg width="670pt" height="789pt"
 viewBox="0.00 0.00 670.00 789.00" xmlns="http://www.w3.org/2000/svg" xmlns:xlink="http://www.w3.org/1999/xlink">
<g id="graph0" class="graph" transform="scale(1 1) rotate(0) translate(4 785)">
<title>Tree</title>
<polygon fill="#ffffff" stroke="transparent" points="-4,4 -4,-785 666,-785 666,4 -4,4"/>
<!-- 0 -->
<g id="node1" class="node">
<title>0</title>
<polygon fill="none" stroke="#000000" points="472.5,-781 332.5,-781 332.5,-713 472.5,-713 472.5,-781"/>
<text text-anchor="middle" x="402.5" y="-765.8" font-family="Helvetica,sans-Serif" font-size="14.00" fill="#000000">X[5] &lt;= 1.9</text>
<text text-anchor="middle" x="402.5" y="-750.8" font-family="Helvetica,sans-Serif" font-size="14.00" fill="#000000">gini = 0.664</text>
<text text-anchor="middle" x="402.5" y="-735.8" font-family="Helvetica,sans-Serif" font-size="14.00" fill="#000000">samples = 105</text>
<text text-anchor="middle" x="402.5" y="-720.8" font-family="Helvetica,sans-Serif" font-size="14.00" fill="#000000">value = [31, 37, 37]</text>
</g>
<!-- 1 -->
<g id="node2" class="node">
<title>1</title>
<polygon fill="none" stroke="#000000" points="396,-677 265,-677 265,-609 396,-609 396,-677"/>
<text text-anchor="middle" x="330.5" y="-661.8" font-family="Helvetica,sans-Serif" font-size="14.00" fill="#000000">X[4] &lt;= &#45;1.9</text>
<text text-anchor="middle" x="330.5" y="-646.8" font-family="Helvetica,sans-Serif" font-size="14.00" fill="#000000">gini = 0.5</text>
<text text-anchor="middle" x="330.5" y="-631.8" font-family="Helvetica,sans-Serif" font-size="14.00" fill="#000000">samples = 74</text>
<text text-anchor="middle" x="330.5" y="-616.8" font-family="Helvetica,sans-Serif" font-size="14.00" fill="#000000">value = [0, 37, 37]</text>
</g>
<!-- 0&#45;&gt;1 -->
<g id="edge1" class="edge">
<title>0&#45;&gt;1</title>
<path fill="none" stroke="#000000" d="M378.9245,-712.9465C372.8329,-704.1475 366.2004,-694.5672 359.8534,-685.3993"/>
<polygon fill="#000000" stroke="#000000" points="362.6983,-683.3597 354.1285,-677.13 356.9429,-687.3442 362.6983,-683.3597"/>
<text text-anchor="middle" x="349.6563" y="-698.0267" font-family="Helvetica,sans-Serif" font-size="14.00" fill="#000000">True</text>
</g>
<!-- 18 -->
<g id="node19" class="node">
<title>18</title>
<polygon fill="none" stroke="#000000" points="537,-669.5 414,-669.5 414,-616.5 537,-616.5 537,-669.5"/>
<text text-anchor="middle" x="475.5" y="-654.3" font-family="Helvetica,sans-Serif" font-size="14.00" fill="#000000">gini = 0.0</text>
<text text-anchor="middle" x="475.5" y="-639.3" font-family="Helvetica,sans-Serif" font-size="14.00" fill="#000000">samples = 31</text>
<text text-anchor="middle" x="475.5" y="-624.3" font-family="Helvetica,sans-Serif" font-size="14.00" fill="#000000">value = [31, 0, 0]</text>
</g>
<!-- 0&#45;&gt;18 -->
<g id="edge18" class="edge">
<title>0&#45;&gt;18</title>
<path fill="none" stroke="#000000" d="M426.4029,-712.9465C434.2892,-701.7113 443.0697,-689.2021 450.9998,-677.9043"/>
<polygon fill="#000000" stroke="#000000" points="453.9889,-679.7379 456.8694,-669.5422 448.2595,-675.7163 453.9889,-679.7379"/>
<text text-anchor="middle" x="461.1823" y="-690.4673" font-family="Helvetica,sans-Serif" font-size="14.00" fill="#000000">False</text>
</g>
<!-- 2 -->
<g id="node3" class="node">
<title>2</title>
<polygon fill="none" stroke="#000000" points="322,-573 199,-573 199,-505 322,-505 322,-573"/>
<text text-anchor="middle" x="260.5" y="-557.8" font-family="Helvetica,sans-Serif" font-size="14.00" fill="#000000">X[3] &lt;= 1.75</text>
<text text-anchor="middle" x="260.5" y="-542.8" font-family="Helvetica,sans-Serif" font-size="14.00" fill="#000000">gini = 0.18</text>
<text text-anchor="middle" x="260.5" y="-527.8" font-family="Helvetica,sans-Serif" font-size="14.00" fill="#000000">samples = 40</text>
<text text-anchor="middle" x="260.5" y="-512.8" font-family="Helvetica,sans-Serif" font-size="14.00" fill="#000000">value = [0, 4, 36]</text>
</g>
<!-- 1&#45;&gt;2 -->
<g id="edge2" class="edge">
<title>1&#45;&gt;2</title>
<path fill="none" stroke="#000000" d="M307.5794,-608.9465C301.7174,-600.2373 295.3402,-590.7626 289.227,-581.6801"/>
<polygon fill="#000000" stroke="#000000" points="291.9595,-579.4716 283.4721,-573.13 286.1524,-583.3802 291.9595,-579.4716"/>
</g>
<!-- 13 -->
<g id="node14" class="node">
<title>13</title>
<polygon fill="none" stroke="#000000" points="463,-573 340,-573 340,-505 463,-505 463,-573"/>
<text text-anchor="middle" x="401.5" y="-557.8" font-family="Helvetica,sans-Serif" font-size="14.00" fill="#000000">X[3] &lt;= 1.65</text>
<text text-anchor="middle" x="401.5" y="-542.8" font-family="Helvetica,sans-Serif" font-size="14.00" fill="#000000">gini = 0.057</text>
<text text-anchor="middle" x="401.5" y="-527.8" font-family="Helvetica,sans-Serif" font-size="14.00" fill="#000000">samples = 34</text>
<text text-anchor="middle" x="401.5" y="-512.8" font-family="Helvetica,sans-Serif" font-size="14.00" fill="#000000">value = [0, 33, 1]</text>
</g>
<!-- 1&#45;&gt;13 -->
<g id="edge13" class="edge">
<title>1&#45;&gt;13</title>
<path fill="none" stroke="#000000" d="M353.7481,-608.9465C359.755,-600.1475 366.2955,-590.5672 372.5543,-581.3993"/>
<polygon fill="#000000" stroke="#000000" points="375.452,-583.3623 378.1997,-573.13 369.6707,-579.4155 375.452,-583.3623"/>
</g>
<!-- 3 -->
<g id="node4" class="node">
<title>3</title>
<polygon fill="none" stroke="#000000" points="181,-469 66,-469 66,-401 181,-401 181,-469"/>
<text text-anchor="middle" x="123.5" y="-453.8" font-family="Helvetica,sans-Serif" font-size="14.00" fill="#000000">X[4] &lt;= &#45;2.6</text>
<text text-anchor="middle" x="123.5" y="-438.8" font-family="Helvetica,sans-Serif" font-size="14.00" fill="#000000">gini = 0.494</text>
<text text-anchor="middle" x="123.5" y="-423.8" font-family="Helvetica,sans-Serif" font-size="14.00" fill="#000000">samples = 9</text>
<text text-anchor="middle" x="123.5" y="-408.8" font-family="Helvetica,sans-Serif" font-size="14.00" fill="#000000">value = [0, 4, 5]</text>
</g>
<!-- 2&#45;&gt;3 -->
<g id="edge3" class="edge">
<title>2&#45;&gt;3</title>
<path fill="none" stroke="#000000" d="M215.6411,-504.9465C203.2222,-495.519 189.6217,-485.1946 176.7739,-475.4415"/>
<polygon fill="#000000" stroke="#000000" points="178.541,-472.3887 168.4597,-469.13 174.3085,-477.9642 178.541,-472.3887"/>
</g>
<!-- 12 -->
<g id="node13" class="node">
<title>12</title>
<polygon fill="none" stroke="#000000" points="322,-461.5 199,-461.5 199,-408.5 322,-408.5 322,-461.5"/>
<text text-anchor="middle" x="260.5" y="-446.3" font-family="Helvetica,sans-Serif" font-size="14.00" fill="#000000">gini = 0.0</text>
<text text-anchor="middle" x="260.5" y="-431.3" font-family="Helvetica,sans-Serif" font-size="14.00" fill="#000000">samples = 31</text>
<text text-anchor="middle" x="260.5" y="-416.3" font-family="Helvetica,sans-Serif" font-size="14.00" fill="#000000">value = [0, 0, 31]</text>
</g>
<!-- 2&#45;&gt;12 -->
<g id="edge12" class="edge">
<title>2&#45;&gt;12</title>
<path fill="none" stroke="#000000" d="M260.5,-504.9465C260.5,-494.2621 260.5,-482.4254 260.5,-471.5742"/>
<polygon fill="#000000" stroke="#000000" points="264.0001,-471.5421 260.5,-461.5422 257.0001,-471.5422 264.0001,-471.5421"/>
</g>
<!-- 4 -->
<g id="node5" class="node">
<title>4</title>
<polygon fill="none" stroke="#000000" points="115,-357.5 0,-357.5 0,-304.5 115,-304.5 115,-357.5"/>
<text text-anchor="middle" x="57.5" y="-342.3" font-family="Helvetica,sans-Serif" font-size="14.00" fill="#000000">gini = 0.0</text>
<text text-anchor="middle" x="57.5" y="-327.3" font-family="Helvetica,sans-Serif" font-size="14.00" fill="#000000">samples = 3</text>
<text text-anchor="middle" x="57.5" y="-312.3" font-family="Helvetica,sans-Serif" font-size="14.00" fill="#000000">value = [0, 0, 3]</text>
</g>
<!-- 3&#45;&gt;4 -->
<g id="edge4" class="edge">
<title>3&#45;&gt;4</title>
<path fill="none" stroke="#000000" d="M101.8891,-400.9465C94.829,-389.8215 86.9761,-377.4473 79.8619,-366.237"/>
<polygon fill="#000000" stroke="#000000" points="82.6575,-364.1101 74.3441,-357.5422 76.7472,-367.8609 82.6575,-364.1101"/>
</g>
<!-- 5 -->
<g id="node6" class="node">
<title>5</title>
<polygon fill="none" stroke="#000000" points="248,-365 133,-365 133,-297 248,-297 248,-365"/>
<text text-anchor="middle" x="190.5" y="-349.8" font-family="Helvetica,sans-Serif" font-size="14.00" fill="#000000">X[5] &lt;= 0.9</text>
<text text-anchor="middle" x="190.5" y="-334.8" font-family="Helvetica,sans-Serif" font-size="14.00" fill="#000000">gini = 0.444</text>
<text text-anchor="middle" x="190.5" y="-319.8" font-family="Helvetica,sans-Serif" font-size="14.00" fill="#000000">samples = 6</text>
<text text-anchor="middle" x="190.5" y="-304.8" font-family="Helvetica,sans-Serif" font-size="14.00" fill="#000000">value = [0, 4, 2]</text>
</g>
<!-- 3&#45;&gt;5 -->
<g id="edge5" class="edge">
<title>3&#45;&gt;5</title>
<path fill="none" stroke="#000000" d="M145.4383,-400.9465C151.049,-392.2373 157.1529,-382.7626 163.0042,-373.6801"/>
<polygon fill="#000000" stroke="#000000" points="166.0389,-375.4321 168.5124,-365.13 160.1543,-371.641 166.0389,-375.4321"/>
</g>
<!-- 6 -->
<g id="node7" class="node">
<title>6</title>
<polygon fill="none" stroke="#000000" points="181,-253.5 66,-253.5 66,-200.5 181,-200.5 181,-253.5"/>
<text text-anchor="middle" x="123.5" y="-238.3" font-family="Helvetica,sans-Serif" font-size="14.00" fill="#000000">gini = 0.0</text>
<text text-anchor="middle" x="123.5" y="-223.3" font-family="Helvetica,sans-Serif" font-size="14.00" fill="#000000">samples = 1</text>
<text text-anchor="middle" x="123.5" y="-208.3" font-family="Helvetica,sans-Serif" font-size="14.00" fill="#000000">value = [0, 0, 1]</text>
</g>
<!-- 5&#45;&gt;6 -->
<g id="edge6" class="edge">
<title>5&#45;&gt;6</title>
<path fill="none" stroke="#000000" d="M168.5617,-296.9465C161.3946,-285.8215 153.4227,-273.4473 146.2007,-262.237"/>
<polygon fill="#000000" stroke="#000000" points="148.9574,-260.0532 140.5993,-253.5422 143.0728,-263.8442 148.9574,-260.0532"/>
</g>
<!-- 7 -->
<g id="node8" class="node">
<title>7</title>
<polygon fill="none" stroke="#000000" points="314,-261 199,-261 199,-193 314,-193 314,-261"/>
<text text-anchor="middle" x="256.5" y="-245.8" font-family="Helvetica,sans-Serif" font-size="14.00" fill="#000000">X[5] &lt;= 1.2</text>
<text text-anchor="middle" x="256.5" y="-230.8" font-family="Helvetica,sans-Serif" font-size="14.00" fill="#000000">gini = 0.32</text>
<text text-anchor="middle" x="256.5" y="-215.8" font-family="Helvetica,sans-Serif" font-size="14.00" fill="#000000">samples = 5</text>
<text text-anchor="middle" x="256.5" y="-200.8" font-family="Helvetica,sans-Serif" font-size="14.00" fill="#000000">value = [0, 4, 1]</text>
</g>
<!-- 5&#45;&gt;7 -->
<g id="edge7" class="edge">
<title>5&#45;&gt;7</title>
<path fill="none" stroke="#000000" d="M212.1109,-296.9465C217.6378,-288.2373 223.6506,-278.7626 229.4146,-269.6801"/>
<polygon fill="#000000" stroke="#000000" points="232.4374,-271.4487 234.8406,-261.13 226.5271,-267.6979 232.4374,-271.4487"/>
</g>
<!-- 8 -->
<g id="node9" class="node">
<title>8</title>
<polygon fill="none" stroke="#000000" points="247,-149.5 132,-149.5 132,-96.5 247,-96.5 247,-149.5"/>
<text text-anchor="middle" x="189.5" y="-134.3" font-family="Helvetica,sans-Serif" font-size="14.00" fill="#000000">gini = 0.0</text>
<text text-anchor="middle" x="189.5" y="-119.3" font-family="Helvetica,sans-Serif" font-size="14.00" fill="#000000">samples = 3</text>
<text text-anchor="middle" x="189.5" y="-104.3" font-family="Helvetica,sans-Serif" font-size="14.00" fill="#000000">value = [0, 3, 0]</text>
</g>
<!-- 7&#45;&gt;8 -->
<g id="edge8" class="edge">
<title>7&#45;&gt;8</title>
<path fill="none" stroke="#000000" d="M234.5617,-192.9465C227.3946,-181.8215 219.4227,-169.4473 212.2007,-158.237"/>
<polygon fill="#000000" stroke="#000000" points="214.9574,-156.0532 206.5993,-149.5422 209.0728,-159.8442 214.9574,-156.0532"/>
</g>
<!-- 9 -->
<g id="node10" class="node">
<title>9</title>
<polygon fill="none" stroke="#000000" points="380,-157 265,-157 265,-89 380,-89 380,-157"/>
<text text-anchor="middle" x="322.5" y="-141.8" font-family="Helvetica,sans-Serif" font-size="14.00" fill="#000000">X[4] &lt;= &#45;2.15</text>
<text text-anchor="middle" x="322.5" y="-126.8" font-family="Helvetica,sans-Serif" font-size="14.00" fill="#000000">gini = 0.5</text>
<text text-anchor="middle" x="322.5" y="-111.8" font-family="Helvetica,sans-Serif" font-size="14.00" fill="#000000">samples = 2</text>
<text text-anchor="middle" x="322.5" y="-96.8" font-family="Helvetica,sans-Serif" font-size="14.00" fill="#000000">value = [0, 1, 1]</text>
</g>
<!-- 7&#45;&gt;9 -->
<g id="edge9" class="edge">
<title>7&#45;&gt;9</title>
<path fill="none" stroke="#000000" d="M278.1109,-192.9465C283.6378,-184.2373 289.6506,-174.7626 295.4146,-165.6801"/>
<polygon fill="#000000" stroke="#000000" points="298.4374,-167.4487 300.8406,-157.13 292.5271,-163.6979 298.4374,-167.4487"/>
</g>
<!-- 10 -->
<g id="node11" class="node">
<title>10</title>
<polygon fill="none" stroke="#000000" points="313,-53 198,-53 198,0 313,0 313,-53"/>
<text text-anchor="middle" x="255.5" y="-37.8" font-family="Helvetica,sans-Serif" font-size="14.00" fill="#000000">gini = 0.0</text>
<text text-anchor="middle" x="255.5" y="-22.8" font-family="Helvetica,sans-Serif" font-size="14.00" fill="#000000">samples = 1</text>
<text text-anchor="middle" x="255.5" y="-7.8" font-family="Helvetica,sans-Serif" font-size="14.00" fill="#000000">value = [0, 0, 1]</text>
</g>
<!-- 9&#45;&gt;10 -->
<g id="edge10" class="edge">
<title>9&#45;&gt;10</title>
<path fill="none" stroke="#000000" d="M298.8783,-88.9777C292.7113,-80.0954 286.0539,-70.5067 279.8499,-61.5711"/>
<polygon fill="#000000" stroke="#000000" points="282.6497,-59.4666 274.0715,-53.2485 276.8997,-63.4589 282.6497,-59.4666"/>
</g>
<!-- 11 -->
<g id="node12" class="node">
<title>11</title>
<polygon fill="none" stroke="#000000" points="446,-53 331,-53 331,0 446,0 446,-53"/>
<text text-anchor="middle" x="388.5" y="-37.8" font-family="Helvetica,sans-Serif" font-size="14.00" fill="#000000">gini = 0.0</text>
<text text-anchor="middle" x="388.5" y="-22.8" font-family="Helvetica,sans-Serif" font-size="14.00" fill="#000000">samples = 1</text>
<text text-anchor="middle" x="388.5" y="-7.8" font-family="Helvetica,sans-Serif" font-size="14.00" fill="#000000">value = [0, 1, 0]</text>
</g>
<!-- 9&#45;&gt;11 -->
<g id="edge11" class="edge">
<title>9&#45;&gt;11</title>
<path fill="none" stroke="#000000" d="M345.7691,-88.9777C351.844,-80.0954 358.4021,-70.5067 364.5135,-61.5711"/>
<polygon fill="#000000" stroke="#000000" points="367.4493,-63.4785 370.2057,-53.2485 361.6714,-59.5267 367.4493,-63.4785"/>
</g>
<!-- 14 -->
<g id="node15" class="node">
<title>14</title>
<polygon fill="none" stroke="#000000" points="463,-461.5 340,-461.5 340,-408.5 463,-408.5 463,-461.5"/>
<text text-anchor="middle" x="401.5" y="-446.3" font-family="Helvetica,sans-Serif" font-size="14.00" fill="#000000">gini = 0.0</text>
<text text-anchor="middle" x="401.5" y="-431.3" font-family="Helvetica,sans-Serif" font-size="14.00" fill="#000000">samples = 32</text>
<text text-anchor="middle" x="401.5" y="-416.3" font-family="Helvetica,sans-Serif" font-size="14.00" fill="#000000">value = [0, 32, 0]</text>
</g>
<!-- 13&#45;&gt;14 -->
<g id="edge14" class="edge">
<title>13&#45;&gt;14</title>
<path fill="none" stroke="#000000" d="M401.5,-504.9465C401.5,-494.2621 401.5,-482.4254 401.5,-471.5742"/>
<polygon fill="#000000" stroke="#000000" points="405.0001,-471.5421 401.5,-461.5422 398.0001,-471.5422 405.0001,-471.5421"/>
</g>
<!-- 15 -->
<g id="node16" class="node">
<title>15</title>
<polygon fill="none" stroke="#000000" points="596,-469 481,-469 481,-401 596,-401 596,-469"/>
<text text-anchor="middle" x="538.5" y="-453.8" font-family="Helvetica,sans-Serif" font-size="14.00" fill="#000000">X[1] &lt;= 3.1</text>
<text text-anchor="middle" x="538.5" y="-438.8" font-family="Helvetica,sans-Serif" font-size="14.00" fill="#000000">gini = 0.5</text>
<text text-anchor="middle" x="538.5" y="-423.8" font-family="Helvetica,sans-Serif" font-size="14.00" fill="#000000">samples = 2</text>
<text text-anchor="middle" x="538.5" y="-408.8" font-family="Helvetica,sans-Serif" font-size="14.00" fill="#000000">value = [0, 1, 1]</text>
</g>
<!-- 13&#45;&gt;15 -->
<g id="edge15" class="edge">
<title>13&#45;&gt;15</title>
<path fill="none" stroke="#000000" d="M446.3589,-504.9465C458.7778,-495.519 472.3783,-485.1946 485.2261,-475.4415"/>
<polygon fill="#000000" stroke="#000000" points="487.6915,-477.9642 493.5403,-469.13 483.459,-472.3887 487.6915,-477.9642"/>
</g>
<!-- 16 -->
<g id="node17" class="node">
<title>16</title>
<polygon fill="none" stroke="#000000" points="529,-357.5 414,-357.5 414,-304.5 529,-304.5 529,-357.5"/>
<text text-anchor="middle" x="471.5" y="-342.3" font-family="Helvetica,sans-Serif" font-size="14.00" fill="#000000">gini = 0.0</text>
<text text-anchor="middle" x="471.5" y="-327.3" font-family="Helvetica,sans-Serif" font-size="14.00" fill="#000000">samples = 1</text>
<text text-anchor="middle" x="471.5" y="-312.3" font-family="Helvetica,sans-Serif" font-size="14.00" fill="#000000">value = [0, 0, 1]</text>
</g>
<!-- 15&#45;&gt;16 -->
<g id="edge16" class="edge">
<title>15&#45;&gt;16</title>
<path fill="none" stroke="#000000" d="M516.5617,-400.9465C509.3946,-389.8215 501.4227,-377.4473 494.2007,-366.237"/>
<polygon fill="#000000" stroke="#000000" points="496.9574,-364.0532 488.5993,-357.5422 491.0728,-367.8442 496.9574,-364.0532"/>
</g>
<!-- 17 -->
<g id="node18" class="node">
<title>17</title>
<polygon fill="none" stroke="#000000" points="662,-357.5 547,-357.5 547,-304.5 662,-304.5 662,-357.5"/>
<text text-anchor="middle" x="604.5" y="-342.3" font-family="Helvetica,sans-Serif" font-size="14.00" fill="#000000">gini = 0.0</text>
<text text-anchor="middle" x="604.5" y="-327.3" font-family="Helvetica,sans-Serif" font-size="14.00" fill="#000000">samples = 1</text>
<text text-anchor="middle" x="604.5" y="-312.3" font-family="Helvetica,sans-Serif" font-size="14.00" fill="#000000">value = [0, 1, 0]</text>
</g>
<!-- 15&#45;&gt;17 -->
<g id="edge17" class="edge">
<title>15&#45;&gt;17</title>
<path fill="none" stroke="#000000" d="M560.1109,-400.9465C567.171,-389.8215 575.0239,-377.4473 582.1381,-366.237"/>
<polygon fill="#000000" stroke="#000000" points="585.2528,-367.8609 587.6559,-357.5422 579.3425,-364.1101 585.2528,-367.8609"/>
</g>
</g>
</svg>
