<?xml version="1.0" encoding="UTF-8" standalone="no"?>
<!DOCTYPE svg PUBLIC "-//W3C//DTD SVG 1.1//EN"
 "http://www.w3.org/Graphics/SVG/1.1/DTD/svg11.dtd">
<!-- Generated by graphviz version 2.40.1 (20161225.0304)
 -->
<!-- Title: Tree Pages: 1 -->
<svg width="736pt" height="581pt"
 viewBox="0.00 0.00 736.00 581.00" xmlns="http://www.w3.org/2000/svg" xmlns:xlink="http://www.w3.org/1999/xlink">
<g id="graph0" class="graph" transform="scale(1 1) rotate(0) translate(4 577)">
<title>Tree</title>
<polygon fill="#ffffff" stroke="transparent" points="-4,4 -4,-577 732,-577 732,4 -4,4"/>
<!-- 0 -->
<g id="node1" class="node">
<title>0</title>
<polygon fill="none" stroke="#000000" points="394.5,-573 254.5,-573 254.5,-505 394.5,-505 394.5,-573"/>
<text text-anchor="middle" x="324.5" y="-557.8" font-family="Helvetica,sans-Serif" font-size="14.00" fill="#000000">X[3] &lt;= 0.8</text>
<text text-anchor="middle" x="324.5" y="-542.8" font-family="Helvetica,sans-Serif" font-size="14.00" fill="#000000">gini = 0.665</text>
<text text-anchor="middle" x="324.5" y="-527.8" font-family="Helvetica,sans-Serif" font-size="14.00" fill="#000000">samples = 94</text>
<text text-anchor="middle" x="324.5" y="-512.8" font-family="Helvetica,sans-Serif" font-size="14.00" fill="#000000">value = [30, 30, 34]</text>
</g>
<!-- 1 -->
<g id="node2" class="node">
<title>1</title>
<polygon fill="none" stroke="#000000" points="314,-461.5 191,-461.5 191,-408.5 314,-408.5 314,-461.5"/>
<text text-anchor="middle" x="252.5" y="-446.3" font-family="Helvetica,sans-Serif" font-size="14.00" fill="#000000">gini = 0.0</text>
<text text-anchor="middle" x="252.5" y="-431.3" font-family="Helvetica,sans-Serif" font-size="14.00" fill="#000000">samples = 30</text>
<text text-anchor="middle" x="252.5" y="-416.3" font-family="Helvetica,sans-Serif" font-size="14.00" fill="#000000">value = [30, 0, 0]</text>
</g>
<!-- 0&#45;&gt;1 -->
<g id="edge1" class="edge">
<title>0&#45;&gt;1</title>
<path fill="none" stroke="#000000" d="M300.9245,-504.9465C293.1463,-493.7113 284.4861,-481.2021 276.6645,-469.9043"/>
<polygon fill="#000000" stroke="#000000" points="279.4452,-467.7719 270.8753,-461.5422 273.6898,-471.7564 279.4452,-467.7719"/>
<text text-anchor="middle" x="266.4032" y="-482.4389" font-family="Helvetica,sans-Serif" font-size="14.00" fill="#000000">True</text>
</g>
<!-- 2 -->
<g id="node3" class="node">
<title>2</title>
<polygon fill="none" stroke="#000000" points="463,-469 332,-469 332,-401 463,-401 463,-469"/>
<text text-anchor="middle" x="397.5" y="-453.8" font-family="Helvetica,sans-Serif" font-size="14.00" fill="#000000">X[4] &lt;= &#45;1.9</text>
<text text-anchor="middle" x="397.5" y="-438.8" font-family="Helvetica,sans-Serif" font-size="14.00" fill="#000000">gini = 0.498</text>
<text text-anchor="middle" x="397.5" y="-423.8" font-family="Helvetica,sans-Serif" font-size="14.00" fill="#000000">samples = 64</text>
<text text-anchor="middle" x="397.5" y="-408.8" font-family="Helvetica,sans-Serif" font-size="14.00" fill="#000000">value = [0, 30, 34]</text>
</g>
<!-- 0&#45;&gt;2 -->
<g id="edge2" class="edge">
<title>0&#45;&gt;2</title>
<path fill="none" stroke="#000000" d="M348.4029,-504.9465C354.5791,-496.1475 361.3038,-486.5672 367.739,-477.3993"/>
<polygon fill="#000000" stroke="#000000" points="370.6629,-479.3258 373.5434,-469.13 364.9334,-475.3041 370.6629,-479.3258"/>
<text text-anchor="middle" x="377.8563" y="-490.0552" font-family="Helvetica,sans-Serif" font-size="14.00" fill="#000000">False</text>
</g>
<!-- 3 -->
<g id="node4" class="node">
<title>3</title>
<polygon fill="none" stroke="#000000" points="388,-365 265,-365 265,-297 388,-297 388,-365"/>
<text text-anchor="middle" x="326.5" y="-349.8" font-family="Helvetica,sans-Serif" font-size="14.00" fill="#000000">X[3] &lt;= 1.75</text>
<text text-anchor="middle" x="326.5" y="-334.8" font-family="Helvetica,sans-Serif" font-size="14.00" fill="#000000">gini = 0.153</text>
<text text-anchor="middle" x="326.5" y="-319.8" font-family="Helvetica,sans-Serif" font-size="14.00" fill="#000000">samples = 36</text>
<text text-anchor="middle" x="326.5" y="-304.8" font-family="Helvetica,sans-Serif" font-size="14.00" fill="#000000">value = [0, 3, 33]</text>
</g>
<!-- 2&#45;&gt;3 -->
<g id="edge3" class="edge">
<title>2&#45;&gt;3</title>
<path fill="none" stroke="#000000" d="M374.2519,-400.9465C368.245,-392.1475 361.7045,-382.5672 355.4457,-373.3993"/>
<polygon fill="#000000" stroke="#000000" points="358.3293,-371.4155 349.8003,-365.13 352.548,-375.3623 358.3293,-371.4155"/>
</g>
<!-- 10 -->
<g id="node11" class="node">
<title>10</title>
<polygon fill="none" stroke="#000000" points="529,-365 406,-365 406,-297 529,-297 529,-365"/>
<text text-anchor="middle" x="467.5" y="-349.8" font-family="Helvetica,sans-Serif" font-size="14.00" fill="#000000">X[3] &lt;= 1.65</text>
<text text-anchor="middle" x="467.5" y="-334.8" font-family="Helvetica,sans-Serif" font-size="14.00" fill="#000000">gini = 0.069</text>
<text text-anchor="middle" x="467.5" y="-319.8" font-family="Helvetica,sans-Serif" font-size="14.00" fill="#000000">samples = 28</text>
<text text-anchor="middle" x="467.5" y="-304.8" font-family="Helvetica,sans-Serif" font-size="14.00" fill="#000000">value = [0, 27, 1]</text>
</g>
<!-- 2&#45;&gt;10 -->
<g id="edge10" class="edge">
<title>2&#45;&gt;10</title>
<path fill="none" stroke="#000000" d="M420.4206,-400.9465C426.2826,-392.2373 432.6598,-382.7626 438.773,-373.6801"/>
<polygon fill="#000000" stroke="#000000" points="441.8476,-375.3802 444.5279,-365.13 436.0405,-371.4716 441.8476,-375.3802"/>
</g>
<!-- 4 -->
<g id="node5" class="node">
<title>4</title>
<polygon fill="none" stroke="#000000" points="247,-261 132,-261 132,-193 247,-193 247,-261"/>
<text text-anchor="middle" x="189.5" y="-245.8" font-family="Helvetica,sans-Serif" font-size="14.00" fill="#000000">X[2] &lt;= 5.05</text>
<text text-anchor="middle" x="189.5" y="-230.8" font-family="Helvetica,sans-Serif" font-size="14.00" fill="#000000">gini = 0.49</text>
<text text-anchor="middle" x="189.5" y="-215.8" font-family="Helvetica,sans-Serif" font-size="14.00" fill="#000000">samples = 7</text>
<text text-anchor="middle" x="189.5" y="-200.8" font-family="Helvetica,sans-Serif" font-size="14.00" fill="#000000">value = [0, 3, 4]</text>
</g>
<!-- 3&#45;&gt;4 -->
<g id="edge4" class="edge">
<title>3&#45;&gt;4</title>
<path fill="none" stroke="#000000" d="M281.6411,-296.9465C269.2222,-287.519 255.6217,-277.1946 242.7739,-267.4415"/>
<polygon fill="#000000" stroke="#000000" points="244.541,-264.3887 234.4597,-261.13 240.3085,-269.9642 244.541,-264.3887"/>
</g>
<!-- 9 -->
<g id="node10" class="node">
<title>9</title>
<polygon fill="none" stroke="#000000" points="388,-253.5 265,-253.5 265,-200.5 388,-200.5 388,-253.5"/>
<text text-anchor="middle" x="326.5" y="-238.3" font-family="Helvetica,sans-Serif" font-size="14.00" fill="#000000">gini = 0.0</text>
<text text-anchor="middle" x="326.5" y="-223.3" font-family="Helvetica,sans-Serif" font-size="14.00" fill="#000000">samples = 29</text>
<text text-anchor="middle" x="326.5" y="-208.3" font-family="Helvetica,sans-Serif" font-size="14.00" fill="#000000">value = [0, 0, 29]</text>
</g>
<!-- 3&#45;&gt;9 -->
<g id="edge9" class="edge">
<title>3&#45;&gt;9</title>
<path fill="none" stroke="#000000" d="M326.5,-296.9465C326.5,-286.2621 326.5,-274.4254 326.5,-263.5742"/>
<polygon fill="#000000" stroke="#000000" points="330.0001,-263.5421 326.5,-253.5422 323.0001,-263.5422 330.0001,-263.5421"/>
</g>
<!-- 5 -->
<g id="node6" class="node">
<title>5</title>
<polygon fill="none" stroke="#000000" points="181,-157 66,-157 66,-89 181,-89 181,-157"/>
<text text-anchor="middle" x="123.5" y="-141.8" font-family="Helvetica,sans-Serif" font-size="14.00" fill="#000000">X[5] &lt;= 0.9</text>
<text text-anchor="middle" x="123.5" y="-126.8" font-family="Helvetica,sans-Serif" font-size="14.00" fill="#000000">gini = 0.375</text>
<text text-anchor="middle" x="123.5" y="-111.8" font-family="Helvetica,sans-Serif" font-size="14.00" fill="#000000">samples = 4</text>
<text text-anchor="middle" x="123.5" y="-96.8" font-family="Helvetica,sans-Serif" font-size="14.00" fill="#000000">value = [0, 3, 1]</text>
</g>
<!-- 4&#45;&gt;5 -->
<g id="edge5" class="edge">
<title>4&#45;&gt;5</title>
<path fill="none" stroke="#000000" d="M167.8891,-192.9465C162.3622,-184.2373 156.3494,-174.7626 150.5854,-165.6801"/>
<polygon fill="#000000" stroke="#000000" points="153.4729,-163.6979 145.1594,-157.13 147.5626,-167.4487 153.4729,-163.6979"/>
</g>
<!-- 8 -->
<g id="node9" class="node">
<title>8</title>
<polygon fill="none" stroke="#000000" points="314,-149.5 199,-149.5 199,-96.5 314,-96.5 314,-149.5"/>
<text text-anchor="middle" x="256.5" y="-134.3" font-family="Helvetica,sans-Serif" font-size="14.00" fill="#000000">gini = 0.0</text>
<text text-anchor="middle" x="256.5" y="-119.3" font-family="Helvetica,sans-Serif" font-size="14.00" fill="#000000">samples = 3</text>
<text text-anchor="middle" x="256.5" y="-104.3" font-family="Helvetica,sans-Serif" font-size="14.00" fill="#000000">value = [0, 0, 3]</text>
</g>
<!-- 4&#45;&gt;8 -->
<g id="edge8" class="edge">
<title>4&#45;&gt;8</title>
<path fill="none" stroke="#000000" d="M211.4383,-192.9465C218.6054,-181.8215 226.5773,-169.4473 233.7993,-158.237"/>
<polygon fill="#000000" stroke="#000000" points="236.9272,-159.8442 239.4007,-149.5422 231.0426,-156.0532 236.9272,-159.8442"/>
</g>
<!-- 6 -->
<g id="node7" class="node">
<title>6</title>
<polygon fill="none" stroke="#000000" points="115,-53 0,-53 0,0 115,0 115,-53"/>
<text text-anchor="middle" x="57.5" y="-37.8" font-family="Helvetica,sans-Serif" font-size="14.00" fill="#000000">gini = 0.0</text>
<text text-anchor="middle" x="57.5" y="-22.8" font-family="Helvetica,sans-Serif" font-size="14.00" fill="#000000">samples = 1</text>
<text text-anchor="middle" x="57.5" y="-7.8" font-family="Helvetica,sans-Serif" font-size="14.00" fill="#000000">value = [0, 0, 1]</text>
</g>
<!-- 5&#45;&gt;6 -->
<g id="edge6" class="edge">
<title>5&#45;&gt;6</title>
<path fill="none" stroke="#000000" d="M100.2309,-88.9777C94.156,-80.0954 87.5979,-70.5067 81.4865,-61.5711"/>
<polygon fill="#000000" stroke="#000000" points="84.3286,-59.5267 75.7943,-53.2485 78.5507,-63.4785 84.3286,-59.5267"/>
</g>
<!-- 7 -->
<g id="node8" class="node">
<title>7</title>
<polygon fill="none" stroke="#000000" points="248,-53 133,-53 133,0 248,0 248,-53"/>
<text text-anchor="middle" x="190.5" y="-37.8" font-family="Helvetica,sans-Serif" font-size="14.00" fill="#000000">gini = 0.0</text>
<text text-anchor="middle" x="190.5" y="-22.8" font-family="Helvetica,sans-Serif" font-size="14.00" fill="#000000">samples = 3</text>
<text text-anchor="middle" x="190.5" y="-7.8" font-family="Helvetica,sans-Serif" font-size="14.00" fill="#000000">value = [0, 3, 0]</text>
</g>
<!-- 5&#45;&gt;7 -->
<g id="edge7" class="edge">
<title>5&#45;&gt;7</title>
<path fill="none" stroke="#000000" d="M147.1217,-88.9777C153.2887,-80.0954 159.9461,-70.5067 166.1501,-61.5711"/>
<polygon fill="#000000" stroke="#000000" points="169.1003,-63.4589 171.9285,-53.2485 163.3503,-59.4666 169.1003,-63.4589"/>
</g>
<!-- 11 -->
<g id="node12" class="node">
<title>11</title>
<polygon fill="none" stroke="#000000" points="529,-253.5 406,-253.5 406,-200.5 529,-200.5 529,-253.5"/>
<text text-anchor="middle" x="467.5" y="-238.3" font-family="Helvetica,sans-Serif" font-size="14.00" fill="#000000">gini = 0.0</text>
<text text-anchor="middle" x="467.5" y="-223.3" font-family="Helvetica,sans-Serif" font-size="14.00" fill="#000000">samples = 26</text>
<text text-anchor="middle" x="467.5" y="-208.3" font-family="Helvetica,sans-Serif" font-size="14.00" fill="#000000">value = [0, 26, 0]</text>
</g>
<!-- 10&#45;&gt;11 -->
<g id="edge11" class="edge">
<title>10&#45;&gt;11</title>
<path fill="none" stroke="#000000" d="M467.5,-296.9465C467.5,-286.2621 467.5,-274.4254 467.5,-263.5742"/>
<polygon fill="#000000" stroke="#000000" points="471.0001,-263.5421 467.5,-253.5422 464.0001,-263.5422 471.0001,-263.5421"/>
</g>
<!-- 12 -->
<g id="node13" class="node">
<title>12</title>
<polygon fill="none" stroke="#000000" points="662,-261 547,-261 547,-193 662,-193 662,-261"/>
<text text-anchor="middle" x="604.5" y="-245.8" font-family="Helvetica,sans-Serif" font-size="14.00" fill="#000000">X[5] &lt;= 1.3</text>
<text text-anchor="middle" x="604.5" y="-230.8" font-family="Helvetica,sans-Serif" font-size="14.00" fill="#000000">gini = 0.5</text>
<text text-anchor="middle" x="604.5" y="-215.8" font-family="Helvetica,sans-Serif" font-size="14.00" fill="#000000">samples = 2</text>
<text text-anchor="middle" x="604.5" y="-200.8" font-family="Helvetica,sans-Serif" font-size="14.00" fill="#000000">value = [0, 1, 1]</text>
</g>
<!-- 10&#45;&gt;12 -->
<g id="edge12" class="edge">
<title>10&#45;&gt;12</title>
<path fill="none" stroke="#000000" d="M512.3589,-296.9465C524.7778,-287.519 538.3783,-277.1946 551.2261,-267.4415"/>
<polygon fill="#000000" stroke="#000000" points="553.6915,-269.9642 559.5403,-261.13 549.459,-264.3887 553.6915,-269.9642"/>
</g>
<!-- 13 -->
<g id="node14" class="node">
<title>13</title>
<polygon fill="none" stroke="#000000" points="595,-149.5 480,-149.5 480,-96.5 595,-96.5 595,-149.5"/>
<text text-anchor="middle" x="537.5" y="-134.3" font-family="Helvetica,sans-Serif" font-size="14.00" fill="#000000">gini = 0.0</text>
<text text-anchor="middle" x="537.5" y="-119.3" font-family="Helvetica,sans-Serif" font-size="14.00" fill="#000000">samples = 1</text>
<text text-anchor="middle" x="537.5" y="-104.3" font-family="Helvetica,sans-Serif" font-size="14.00" fill="#000000">value = [0, 0, 1]</text>
</g>
<!-- 12&#45;&gt;13 -->
<g id="edge13" class="edge">
<title>12&#45;&gt;13</title>
<path fill="none" stroke="#000000" d="M582.5617,-192.9465C575.3946,-181.8215 567.4227,-169.4473 560.2007,-158.237"/>
<polygon fill="#000000" stroke="#000000" points="562.9574,-156.0532 554.5993,-149.5422 557.0728,-159.8442 562.9574,-156.0532"/>
</g>
<!-- 14 -->
<g id="node15" class="node">
<title>14</title>
<polygon fill="none" stroke="#000000" points="728,-149.5 613,-149.5 613,-96.5 728,-96.5 728,-149.5"/>
<text text-anchor="middle" x="670.5" y="-134.3" font-family="Helvetica,sans-Serif" font-size="14.00" fill="#000000">gini = 0.0</text>
<text text-anchor="middle" x="670.5" y="-119.3" font-family="Helvetica,sans-Serif" font-size="14.00" fill="#000000">samples = 1</text>
<text text-anchor="middle" x="670.5" y="-104.3" font-family="Helvetica,sans-Serif" font-size="14.00" fill="#000000">value = [0, 1, 0]</text>
</g>
<!-- 12&#45;&gt;14 -->
<g id="edge14" class="edge">
<title>12&#45;&gt;14</title>
<path fill="none" stroke="#000000" d="M626.1109,-192.9465C633.171,-181.8215 641.0239,-169.4473 648.1381,-158.237"/>
<polygon fill="#000000" stroke="#000000" points="651.2528,-159.8609 653.6559,-149.5422 645.3425,-156.1101 651.2528,-159.8609"/>
</g>
</g>
</svg>
