<?xml version="1.0" encoding="UTF-8" standalone="no"?>
<!DOCTYPE svg PUBLIC "-//W3C//DTD SVG 1.1//EN"
 "http://www.w3.org/Graphics/SVG/1.1/DTD/svg11.dtd">
<!-- Generated by graphviz version 2.40.1 (20161225.0304)
 -->
<!-- Title: Tree Pages: 1 -->
<svg width="1187pt" height="789pt"
 viewBox="0.00 0.00 1187.00 789.00" xmlns="http://www.w3.org/2000/svg" xmlns:xlink="http://www.w3.org/1999/xlink">
<g id="graph0" class="graph" transform="scale(1 1) rotate(0) translate(4 785)">
<title>Tree</title>
<polygon fill="#ffffff" stroke="transparent" points="-4,4 -4,-785 1183,-785 1183,4 -4,4"/>
<!-- 0 -->
<g id="node1" class="node">
<title>0</title>
<polygon fill="none" stroke="#000000" points="662.5,-781 546.5,-781 546.5,-713 662.5,-713 662.5,-781"/>
<text text-anchor="middle" x="604.5" y="-765.8" font-family="Helvetica,sans-Serif" font-size="14.00" fill="#000000">X[3] &lt;= 13.339</text>
<text text-anchor="middle" x="604.5" y="-750.8" font-family="Helvetica,sans-Serif" font-size="14.00" fill="#000000">gini = 0.481</text>
<text text-anchor="middle" x="604.5" y="-735.8" font-family="Helvetica,sans-Serif" font-size="14.00" fill="#000000">samples = 72</text>
<text text-anchor="middle" x="604.5" y="-720.8" font-family="Helvetica,sans-Serif" font-size="14.00" fill="#000000">value = [29, 43]</text>
</g>
<!-- 1 -->
<g id="node2" class="node">
<title>1</title>
<polygon fill="none" stroke="#000000" points="595.5,-677 479.5,-677 479.5,-609 595.5,-609 595.5,-677"/>
<text text-anchor="middle" x="537.5" y="-661.8" font-family="Helvetica,sans-Serif" font-size="14.00" fill="#000000">X[1] &lt;= 7.933</text>
<text text-anchor="middle" x="537.5" y="-646.8" font-family="Helvetica,sans-Serif" font-size="14.00" fill="#000000">gini = 0.497</text>
<text text-anchor="middle" x="537.5" y="-631.8" font-family="Helvetica,sans-Serif" font-size="14.00" fill="#000000">samples = 41</text>
<text text-anchor="middle" x="537.5" y="-616.8" font-family="Helvetica,sans-Serif" font-size="14.00" fill="#000000">value = [22, 19]</text>
</g>
<!-- 0&#45;&gt;1 -->
<g id="edge1" class="edge">
<title>0&#45;&gt;1</title>
<path fill="none" stroke="#000000" d="M582.5617,-712.9465C576.951,-704.2373 570.8471,-694.7626 564.9958,-685.6801"/>
<polygon fill="#000000" stroke="#000000" points="567.8457,-683.641 559.4876,-677.13 561.9611,-687.4321 567.8457,-683.641"/>
<text text-anchor="middle" x="554.2006" y="-697.8646" font-family="Helvetica,sans-Serif" font-size="14.00" fill="#000000">True</text>
</g>
<!-- 28 -->
<g id="node29" class="node">
<title>28</title>
<polygon fill="none" stroke="#000000" points="787.5,-677 671.5,-677 671.5,-609 787.5,-609 787.5,-677"/>
<text text-anchor="middle" x="729.5" y="-661.8" font-family="Helvetica,sans-Serif" font-size="14.00" fill="#000000">X[8] &lt;= &#45;34.184</text>
<text text-anchor="middle" x="729.5" y="-646.8" font-family="Helvetica,sans-Serif" font-size="14.00" fill="#000000">gini = 0.35</text>
<text text-anchor="middle" x="729.5" y="-631.8" font-family="Helvetica,sans-Serif" font-size="14.00" fill="#000000">samples = 31</text>
<text text-anchor="middle" x="729.5" y="-616.8" font-family="Helvetica,sans-Serif" font-size="14.00" fill="#000000">value = [7, 24]</text>
</g>
<!-- 0&#45;&gt;28 -->
<g id="edge28" class="edge">
<title>0&#45;&gt;28</title>
<path fill="none" stroke="#000000" d="M645.4297,-712.9465C656.6528,-703.6088 668.9337,-693.3911 680.5573,-683.7203"/>
<polygon fill="#000000" stroke="#000000" points="683.0296,-686.2164 688.4784,-677.13 678.5526,-680.8353 683.0296,-686.2164"/>
<text text-anchor="middle" x="686.1954" y="-698.3255" font-family="Helvetica,sans-Serif" font-size="14.00" fill="#000000">False</text>
</g>
<!-- 2 -->
<g id="node3" class="node">
<title>2</title>
<polygon fill="none" stroke="#000000" points="461,-565.5 362,-565.5 362,-512.5 461,-512.5 461,-565.5"/>
<text text-anchor="middle" x="411.5" y="-550.3" font-family="Helvetica,sans-Serif" font-size="14.00" fill="#000000">gini = 0.0</text>
<text text-anchor="middle" x="411.5" y="-535.3" font-family="Helvetica,sans-Serif" font-size="14.00" fill="#000000">samples = 5</text>
<text text-anchor="middle" x="411.5" y="-520.3" font-family="Helvetica,sans-Serif" font-size="14.00" fill="#000000">value = [5, 0]</text>
</g>
<!-- 1&#45;&gt;2 -->
<g id="edge2" class="edge">
<title>1&#45;&gt;2</title>
<path fill="none" stroke="#000000" d="M496.2429,-608.9465C481.8303,-597.0504 465.6873,-583.726 451.3883,-571.9237"/>
<polygon fill="#000000" stroke="#000000" points="453.5971,-569.2086 443.6569,-565.5422 449.1411,-574.6071 453.5971,-569.2086"/>
</g>
<!-- 3 -->
<g id="node4" class="node">
<title>3</title>
<polygon fill="none" stroke="#000000" points="595.5,-573 479.5,-573 479.5,-505 595.5,-505 595.5,-573"/>
<text text-anchor="middle" x="537.5" y="-557.8" font-family="Helvetica,sans-Serif" font-size="14.00" fill="#000000">X[1] &lt;= 13.095</text>
<text text-anchor="middle" x="537.5" y="-542.8" font-family="Helvetica,sans-Serif" font-size="14.00" fill="#000000">gini = 0.498</text>
<text text-anchor="middle" x="537.5" y="-527.8" font-family="Helvetica,sans-Serif" font-size="14.00" fill="#000000">samples = 36</text>
<text text-anchor="middle" x="537.5" y="-512.8" font-family="Helvetica,sans-Serif" font-size="14.00" fill="#000000">value = [17, 19]</text>
</g>
<!-- 1&#45;&gt;3 -->
<g id="edge3" class="edge">
<title>1&#45;&gt;3</title>
<path fill="none" stroke="#000000" d="M537.5,-608.9465C537.5,-600.776 537.5,-591.9318 537.5,-583.3697"/>
<polygon fill="#000000" stroke="#000000" points="541.0001,-583.13 537.5,-573.13 534.0001,-583.13 541.0001,-583.13"/>
</g>
<!-- 4 -->
<g id="node5" class="node">
<title>4</title>
<polygon fill="none" stroke="#000000" points="366,-469 263,-469 263,-401 366,-401 366,-469"/>
<text text-anchor="middle" x="314.5" y="-453.8" font-family="Helvetica,sans-Serif" font-size="14.00" fill="#000000">X[2] &lt;= 5.618</text>
<text text-anchor="middle" x="314.5" y="-438.8" font-family="Helvetica,sans-Serif" font-size="14.00" fill="#000000">gini = 0.219</text>
<text text-anchor="middle" x="314.5" y="-423.8" font-family="Helvetica,sans-Serif" font-size="14.00" fill="#000000">samples = 8</text>
<text text-anchor="middle" x="314.5" y="-408.8" font-family="Helvetica,sans-Serif" font-size="14.00" fill="#000000">value = [1, 7]</text>
</g>
<!-- 3&#45;&gt;4 -->
<g id="edge4" class="edge">
<title>3&#45;&gt;4</title>
<path fill="none" stroke="#000000" d="M479.3354,-509.729C476.0142,-508.1165 472.7183,-506.5306 469.5,-505 438.7157,-490.3596 404.1738,-474.6877 375.5242,-461.8921"/>
<polygon fill="#000000" stroke="#000000" points="376.6068,-458.5428 366.0481,-457.6687 373.7571,-464.9365 376.6068,-458.5428"/>
</g>
<!-- 9 -->
<g id="node10" class="node">
<title>9</title>
<polygon fill="none" stroke="#000000" points="595.5,-469 479.5,-469 479.5,-401 595.5,-401 595.5,-469"/>
<text text-anchor="middle" x="537.5" y="-453.8" font-family="Helvetica,sans-Serif" font-size="14.00" fill="#000000">X[2] &lt;= 10.386</text>
<text text-anchor="middle" x="537.5" y="-438.8" font-family="Helvetica,sans-Serif" font-size="14.00" fill="#000000">gini = 0.49</text>
<text text-anchor="middle" x="537.5" y="-423.8" font-family="Helvetica,sans-Serif" font-size="14.00" fill="#000000">samples = 28</text>
<text text-anchor="middle" x="537.5" y="-408.8" font-family="Helvetica,sans-Serif" font-size="14.00" fill="#000000">value = [16, 12]</text>
</g>
<!-- 3&#45;&gt;9 -->
<g id="edge9" class="edge">
<title>3&#45;&gt;9</title>
<path fill="none" stroke="#000000" d="M537.5,-504.9465C537.5,-496.776 537.5,-487.9318 537.5,-479.3697"/>
<polygon fill="#000000" stroke="#000000" points="541.0001,-479.13 537.5,-469.13 534.0001,-479.13 541.0001,-479.13"/>
</g>
<!-- 5 -->
<g id="node6" class="node">
<title>5</title>
<polygon fill="none" stroke="#000000" points="220,-365 113,-365 113,-297 220,-297 220,-365"/>
<text text-anchor="middle" x="166.5" y="-349.8" font-family="Helvetica,sans-Serif" font-size="14.00" fill="#000000">X[9] &lt;= &#45;2.637</text>
<text text-anchor="middle" x="166.5" y="-334.8" font-family="Helvetica,sans-Serif" font-size="14.00" fill="#000000">gini = 0.5</text>
<text text-anchor="middle" x="166.5" y="-319.8" font-family="Helvetica,sans-Serif" font-size="14.00" fill="#000000">samples = 2</text>
<text text-anchor="middle" x="166.5" y="-304.8" font-family="Helvetica,sans-Serif" font-size="14.00" fill="#000000">value = [1, 1]</text>
</g>
<!-- 4&#45;&gt;5 -->
<g id="edge5" class="edge">
<title>4&#45;&gt;5</title>
<path fill="none" stroke="#000000" d="M266.0393,-400.9465C252.3677,-391.3395 237.3706,-380.8009 223.2591,-370.8848"/>
<polygon fill="#000000" stroke="#000000" points="225.2639,-368.0158 215.0696,-365.13 221.2392,-373.7432 225.2639,-368.0158"/>
</g>
<!-- 8 -->
<g id="node9" class="node">
<title>8</title>
<polygon fill="none" stroke="#000000" points="364,-357.5 265,-357.5 265,-304.5 364,-304.5 364,-357.5"/>
<text text-anchor="middle" x="314.5" y="-342.3" font-family="Helvetica,sans-Serif" font-size="14.00" fill="#000000">gini = 0.0</text>
<text text-anchor="middle" x="314.5" y="-327.3" font-family="Helvetica,sans-Serif" font-size="14.00" fill="#000000">samples = 6</text>
<text text-anchor="middle" x="314.5" y="-312.3" font-family="Helvetica,sans-Serif" font-size="14.00" fill="#000000">value = [0, 6]</text>
</g>
<!-- 4&#45;&gt;8 -->
<g id="edge8" class="edge">
<title>4&#45;&gt;8</title>
<path fill="none" stroke="#000000" d="M314.5,-400.9465C314.5,-390.2621 314.5,-378.4254 314.5,-367.5742"/>
<polygon fill="#000000" stroke="#000000" points="318.0001,-367.5421 314.5,-357.5422 311.0001,-367.5422 318.0001,-367.5421"/>
</g>
<!-- 6 -->
<g id="node7" class="node">
<title>6</title>
<polygon fill="none" stroke="#000000" points="99,-253.5 0,-253.5 0,-200.5 99,-200.5 99,-253.5"/>
<text text-anchor="middle" x="49.5" y="-238.3" font-family="Helvetica,sans-Serif" font-size="14.00" fill="#000000">gini = 0.0</text>
<text text-anchor="middle" x="49.5" y="-223.3" font-family="Helvetica,sans-Serif" font-size="14.00" fill="#000000">samples = 1</text>
<text text-anchor="middle" x="49.5" y="-208.3" font-family="Helvetica,sans-Serif" font-size="14.00" fill="#000000">value = [0, 1]</text>
</g>
<!-- 5&#45;&gt;6 -->
<g id="edge6" class="edge">
<title>5&#45;&gt;6</title>
<path fill="none" stroke="#000000" d="M128.1898,-296.9465C114.9306,-285.1606 100.0942,-271.9726 86.9084,-260.2519"/>
<polygon fill="#000000" stroke="#000000" points="89.1593,-257.5699 79.3599,-253.5422 84.5088,-262.8018 89.1593,-257.5699"/>
</g>
<!-- 7 -->
<g id="node8" class="node">
<title>7</title>
<polygon fill="none" stroke="#000000" points="216,-253.5 117,-253.5 117,-200.5 216,-200.5 216,-253.5"/>
<text text-anchor="middle" x="166.5" y="-238.3" font-family="Helvetica,sans-Serif" font-size="14.00" fill="#000000">gini = 0.0</text>
<text text-anchor="middle" x="166.5" y="-223.3" font-family="Helvetica,sans-Serif" font-size="14.00" fill="#000000">samples = 1</text>
<text text-anchor="middle" x="166.5" y="-208.3" font-family="Helvetica,sans-Serif" font-size="14.00" fill="#000000">value = [1, 0]</text>
</g>
<!-- 5&#45;&gt;7 -->
<g id="edge7" class="edge">
<title>5&#45;&gt;7</title>
<path fill="none" stroke="#000000" d="M166.5,-296.9465C166.5,-286.2621 166.5,-274.4254 166.5,-263.5742"/>
<polygon fill="#000000" stroke="#000000" points="170.0001,-263.5421 166.5,-253.5422 163.0001,-263.5422 170.0001,-263.5421"/>
</g>
<!-- 10 -->
<g id="node11" class="node">
<title>10</title>
<polygon fill="none" stroke="#000000" points="502,-365 395,-365 395,-297 502,-297 502,-365"/>
<text text-anchor="middle" x="448.5" y="-349.8" font-family="Helvetica,sans-Serif" font-size="14.00" fill="#000000">X[2] &lt;= 4.456</text>
<text text-anchor="middle" x="448.5" y="-334.8" font-family="Helvetica,sans-Serif" font-size="14.00" fill="#000000">gini = 0.415</text>
<text text-anchor="middle" x="448.5" y="-319.8" font-family="Helvetica,sans-Serif" font-size="14.00" fill="#000000">samples = 17</text>
<text text-anchor="middle" x="448.5" y="-304.8" font-family="Helvetica,sans-Serif" font-size="14.00" fill="#000000">value = [12, 5]</text>
</g>
<!-- 9&#45;&gt;10 -->
<g id="edge10" class="edge">
<title>9&#45;&gt;10</title>
<path fill="none" stroke="#000000" d="M508.3581,-400.9465C500.6745,-391.968 492.2947,-382.1758 484.3041,-372.8385"/>
<polygon fill="#000000" stroke="#000000" points="486.8685,-370.4521 477.7074,-365.13 481.5501,-375.0034 486.8685,-370.4521"/>
</g>
<!-- 21 -->
<g id="node22" class="node">
<title>21</title>
<polygon fill="none" stroke="#000000" points="631.5,-365 527.5,-365 527.5,-297 631.5,-297 631.5,-365"/>
<text text-anchor="middle" x="579.5" y="-349.8" font-family="Helvetica,sans-Serif" font-size="14.00" fill="#000000">X[0] &lt;= 6.966</text>
<text text-anchor="middle" x="579.5" y="-334.8" font-family="Helvetica,sans-Serif" font-size="14.00" fill="#000000">gini = 0.463</text>
<text text-anchor="middle" x="579.5" y="-319.8" font-family="Helvetica,sans-Serif" font-size="14.00" fill="#000000">samples = 11</text>
<text text-anchor="middle" x="579.5" y="-304.8" font-family="Helvetica,sans-Serif" font-size="14.00" fill="#000000">value = [4, 7]</text>
</g>
<!-- 9&#45;&gt;21 -->
<g id="edge21" class="edge">
<title>9&#45;&gt;21</title>
<path fill="none" stroke="#000000" d="M551.2524,-400.9465C554.6608,-392.5067 558.3595,-383.3479 561.9231,-374.5239"/>
<polygon fill="#000000" stroke="#000000" points="565.2174,-375.7131 565.7167,-365.13 558.7267,-373.0918 565.2174,-375.7131"/>
</g>
<!-- 11 -->
<g id="node12" class="node">
<title>11</title>
<polygon fill="none" stroke="#000000" points="333,-261 234,-261 234,-193 333,-193 333,-261"/>
<text text-anchor="middle" x="283.5" y="-245.8" font-family="Helvetica,sans-Serif" font-size="14.00" fill="#000000">X[3] &lt;= 4.88</text>
<text text-anchor="middle" x="283.5" y="-230.8" font-family="Helvetica,sans-Serif" font-size="14.00" fill="#000000">gini = 0.49</text>
<text text-anchor="middle" x="283.5" y="-215.8" font-family="Helvetica,sans-Serif" font-size="14.00" fill="#000000">samples = 7</text>
<text text-anchor="middle" x="283.5" y="-200.8" font-family="Helvetica,sans-Serif" font-size="14.00" fill="#000000">value = [3, 4]</text>
</g>
<!-- 10&#45;&gt;11 -->
<g id="edge11" class="edge">
<title>10&#45;&gt;11</title>
<path fill="none" stroke="#000000" d="M394.9292,-297.2342C378.0215,-286.5772 359.2576,-274.7502 342.0226,-263.887"/>
<polygon fill="#000000" stroke="#000000" points="343.4932,-260.6767 333.1671,-258.3053 339.7606,-266.5985 343.4932,-260.6767"/>
</g>
<!-- 16 -->
<g id="node17" class="node">
<title>16</title>
<polygon fill="none" stroke="#000000" points="500.5,-261 396.5,-261 396.5,-193 500.5,-193 500.5,-261"/>
<text text-anchor="middle" x="448.5" y="-245.8" font-family="Helvetica,sans-Serif" font-size="14.00" fill="#000000">X[2] &lt;= 8.88</text>
<text text-anchor="middle" x="448.5" y="-230.8" font-family="Helvetica,sans-Serif" font-size="14.00" fill="#000000">gini = 0.18</text>
<text text-anchor="middle" x="448.5" y="-215.8" font-family="Helvetica,sans-Serif" font-size="14.00" fill="#000000">samples = 10</text>
<text text-anchor="middle" x="448.5" y="-200.8" font-family="Helvetica,sans-Serif" font-size="14.00" fill="#000000">value = [9, 1]</text>
</g>
<!-- 10&#45;&gt;16 -->
<g id="edge16" class="edge">
<title>10&#45;&gt;16</title>
<path fill="none" stroke="#000000" d="M448.5,-296.9465C448.5,-288.776 448.5,-279.9318 448.5,-271.3697"/>
<polygon fill="#000000" stroke="#000000" points="452.0001,-271.13 448.5,-261.13 445.0001,-271.13 452.0001,-271.13"/>
</g>
<!-- 12 -->
<g id="node13" class="node">
<title>12</title>
<polygon fill="none" stroke="#000000" points="210,-149.5 111,-149.5 111,-96.5 210,-96.5 210,-149.5"/>
<text text-anchor="middle" x="160.5" y="-134.3" font-family="Helvetica,sans-Serif" font-size="14.00" fill="#000000">gini = 0.0</text>
<text text-anchor="middle" x="160.5" y="-119.3" font-family="Helvetica,sans-Serif" font-size="14.00" fill="#000000">samples = 2</text>
<text text-anchor="middle" x="160.5" y="-104.3" font-family="Helvetica,sans-Serif" font-size="14.00" fill="#000000">value = [2, 0]</text>
</g>
<!-- 11&#45;&gt;12 -->
<g id="edge12" class="edge">
<title>11&#45;&gt;12</title>
<path fill="none" stroke="#000000" d="M243.2252,-192.9465C229.2861,-181.1606 213.6888,-167.9726 199.8268,-156.2519"/>
<polygon fill="#000000" stroke="#000000" points="201.7873,-153.3262 191.8912,-149.5422 197.2676,-158.6715 201.7873,-153.3262"/>
</g>
<!-- 13 -->
<g id="node14" class="node">
<title>13</title>
<polygon fill="none" stroke="#000000" points="331,-157 228,-157 228,-89 331,-89 331,-157"/>
<text text-anchor="middle" x="279.5" y="-141.8" font-family="Helvetica,sans-Serif" font-size="14.00" fill="#000000">X[0] &lt;= 4.378</text>
<text text-anchor="middle" x="279.5" y="-126.8" font-family="Helvetica,sans-Serif" font-size="14.00" fill="#000000">gini = 0.32</text>
<text text-anchor="middle" x="279.5" y="-111.8" font-family="Helvetica,sans-Serif" font-size="14.00" fill="#000000">samples = 5</text>
<text text-anchor="middle" x="279.5" y="-96.8" font-family="Helvetica,sans-Serif" font-size="14.00" fill="#000000">value = [1, 4]</text>
</g>
<!-- 11&#45;&gt;13 -->
<g id="edge13" class="edge">
<title>11&#45;&gt;13</title>
<path fill="none" stroke="#000000" d="M282.1903,-192.9465C281.876,-184.776 281.5358,-175.9318 281.2065,-167.3697"/>
<polygon fill="#000000" stroke="#000000" points="284.6945,-166.9881 280.8127,-157.13 277.6997,-167.2572 284.6945,-166.9881"/>
</g>
<!-- 14 -->
<g id="node15" class="node">
<title>14</title>
<polygon fill="none" stroke="#000000" points="272,-53 173,-53 173,0 272,0 272,-53"/>
<text text-anchor="middle" x="222.5" y="-37.8" font-family="Helvetica,sans-Serif" font-size="14.00" fill="#000000">gini = 0.0</text>
<text text-anchor="middle" x="222.5" y="-22.8" font-family="Helvetica,sans-Serif" font-size="14.00" fill="#000000">samples = 1</text>
<text text-anchor="middle" x="222.5" y="-7.8" font-family="Helvetica,sans-Serif" font-size="14.00" fill="#000000">value = [1, 0]</text>
</g>
<!-- 13&#45;&gt;14 -->
<g id="edge14" class="edge">
<title>13&#45;&gt;14</title>
<path fill="none" stroke="#000000" d="M259.4039,-88.9777C254.2656,-80.2786 248.727,-70.9018 243.5425,-62.1247"/>
<polygon fill="#000000" stroke="#000000" points="246.399,-60.0786 238.2996,-53.2485 240.3719,-63.6387 246.399,-60.0786"/>
</g>
<!-- 15 -->
<g id="node16" class="node">
<title>15</title>
<polygon fill="none" stroke="#000000" points="389,-53 290,-53 290,0 389,0 389,-53"/>
<text text-anchor="middle" x="339.5" y="-37.8" font-family="Helvetica,sans-Serif" font-size="14.00" fill="#000000">gini = 0.0</text>
<text text-anchor="middle" x="339.5" y="-22.8" font-family="Helvetica,sans-Serif" font-size="14.00" fill="#000000">samples = 4</text>
<text text-anchor="middle" x="339.5" y="-7.8" font-family="Helvetica,sans-Serif" font-size="14.00" fill="#000000">value = [0, 4]</text>
</g>
<!-- 13&#45;&gt;15 -->
<g id="edge15" class="edge">
<title>13&#45;&gt;15</title>
<path fill="none" stroke="#000000" d="M300.6538,-88.9777C306.1195,-80.187 312.0154,-70.7044 317.5222,-61.8477"/>
<polygon fill="#000000" stroke="#000000" points="320.5609,-63.5889 322.8688,-53.2485 314.6163,-59.8927 320.5609,-63.5889"/>
</g>
<!-- 17 -->
<g id="node18" class="node">
<title>17</title>
<polygon fill="none" stroke="#000000" points="448,-149.5 349,-149.5 349,-96.5 448,-96.5 448,-149.5"/>
<text text-anchor="middle" x="398.5" y="-134.3" font-family="Helvetica,sans-Serif" font-size="14.00" fill="#000000">gini = 0.0</text>
<text text-anchor="middle" x="398.5" y="-119.3" font-family="Helvetica,sans-Serif" font-size="14.00" fill="#000000">samples = 7</text>
<text text-anchor="middle" x="398.5" y="-104.3" font-family="Helvetica,sans-Serif" font-size="14.00" fill="#000000">value = [7, 0]</text>
</g>
<!-- 16&#45;&gt;17 -->
<g id="edge17" class="edge">
<title>16&#45;&gt;17</title>
<path fill="none" stroke="#000000" d="M432.1281,-192.9465C426.8325,-181.9316 420.9482,-169.6922 415.6011,-158.5703"/>
<polygon fill="#000000" stroke="#000000" points="418.748,-157.0381 411.2607,-149.5422 412.4393,-160.0712 418.748,-157.0381"/>
</g>
<!-- 18 -->
<g id="node19" class="node">
<title>18</title>
<polygon fill="none" stroke="#000000" points="569,-157 466,-157 466,-89 569,-89 569,-157"/>
<text text-anchor="middle" x="517.5" y="-141.8" font-family="Helvetica,sans-Serif" font-size="14.00" fill="#000000">X[2] &lt;= 9.253</text>
<text text-anchor="middle" x="517.5" y="-126.8" font-family="Helvetica,sans-Serif" font-size="14.00" fill="#000000">gini = 0.444</text>
<text text-anchor="middle" x="517.5" y="-111.8" font-family="Helvetica,sans-Serif" font-size="14.00" fill="#000000">samples = 3</text>
<text text-anchor="middle" x="517.5" y="-96.8" font-family="Helvetica,sans-Serif" font-size="14.00" fill="#000000">value = [2, 1]</text>
</g>
<!-- 16&#45;&gt;18 -->
<g id="edge18" class="edge">
<title>16&#45;&gt;18</title>
<path fill="none" stroke="#000000" d="M471.0932,-192.9465C476.8714,-184.2373 483.1575,-174.7626 489.1834,-165.6801"/>
<polygon fill="#000000" stroke="#000000" points="492.244,-167.3978 494.8561,-157.13 486.411,-163.5278 492.244,-167.3978"/>
</g>
<!-- 19 -->
<g id="node20" class="node">
<title>19</title>
<polygon fill="none" stroke="#000000" points="508,-53 409,-53 409,0 508,0 508,-53"/>
<text text-anchor="middle" x="458.5" y="-37.8" font-family="Helvetica,sans-Serif" font-size="14.00" fill="#000000">gini = 0.0</text>
<text text-anchor="middle" x="458.5" y="-22.8" font-family="Helvetica,sans-Serif" font-size="14.00" fill="#000000">samples = 1</text>
<text text-anchor="middle" x="458.5" y="-7.8" font-family="Helvetica,sans-Serif" font-size="14.00" fill="#000000">value = [0, 1]</text>
</g>
<!-- 18&#45;&gt;19 -->
<g id="edge19" class="edge">
<title>18&#45;&gt;19</title>
<path fill="none" stroke="#000000" d="M496.6988,-88.9777C491.3242,-80.187 485.5265,-70.7044 480.1115,-61.8477"/>
<polygon fill="#000000" stroke="#000000" points="483.0564,-59.9545 474.854,-53.2485 477.0842,-63.6059 483.0564,-59.9545"/>
</g>
<!-- 20 -->
<g id="node21" class="node">
<title>20</title>
<polygon fill="none" stroke="#000000" points="625,-53 526,-53 526,0 625,0 625,-53"/>
<text text-anchor="middle" x="575.5" y="-37.8" font-family="Helvetica,sans-Serif" font-size="14.00" fill="#000000">gini = 0.0</text>
<text text-anchor="middle" x="575.5" y="-22.8" font-family="Helvetica,sans-Serif" font-size="14.00" fill="#000000">samples = 2</text>
<text text-anchor="middle" x="575.5" y="-7.8" font-family="Helvetica,sans-Serif" font-size="14.00" fill="#000000">value = [2, 0]</text>
</g>
<!-- 18&#45;&gt;20 -->
<g id="edge20" class="edge">
<title>18&#45;&gt;20</title>
<path fill="none" stroke="#000000" d="M537.9486,-88.9777C543.2322,-80.187 548.9316,-70.7044 554.2548,-61.8477"/>
<polygon fill="#000000" stroke="#000000" points="557.2715,-63.6225 559.4232,-53.2485 551.2718,-60.0165 557.2715,-63.6225"/>
</g>
<!-- 22 -->
<g id="node23" class="node">
<title>22</title>
<polygon fill="none" stroke="#000000" points="685,-261 582,-261 582,-193 685,-193 685,-261"/>
<text text-anchor="middle" x="633.5" y="-245.8" font-family="Helvetica,sans-Serif" font-size="14.00" fill="#000000">X[1] &lt;= 19.86</text>
<text text-anchor="middle" x="633.5" y="-230.8" font-family="Helvetica,sans-Serif" font-size="14.00" fill="#000000">gini = 0.444</text>
<text text-anchor="middle" x="633.5" y="-215.8" font-family="Helvetica,sans-Serif" font-size="14.00" fill="#000000">samples = 6</text>
<text text-anchor="middle" x="633.5" y="-200.8" font-family="Helvetica,sans-Serif" font-size="14.00" fill="#000000">value = [4, 2]</text>
</g>
<!-- 21&#45;&gt;22 -->
<g id="edge22" class="edge">
<title>21&#45;&gt;22</title>
<path fill="none" stroke="#000000" d="M597.1816,-296.9465C601.6105,-288.4169 606.4206,-279.153 611.0472,-270.2424"/>
<polygon fill="#000000" stroke="#000000" points="614.2767,-271.6178 615.7787,-261.13 608.0642,-268.3921 614.2767,-271.6178"/>
</g>
<!-- 27 -->
<g id="node28" class="node">
<title>27</title>
<polygon fill="none" stroke="#000000" points="802,-253.5 703,-253.5 703,-200.5 802,-200.5 802,-253.5"/>
<text text-anchor="middle" x="752.5" y="-238.3" font-family="Helvetica,sans-Serif" font-size="14.00" fill="#000000">gini = 0.0</text>
<text text-anchor="middle" x="752.5" y="-223.3" font-family="Helvetica,sans-Serif" font-size="14.00" fill="#000000">samples = 5</text>
<text text-anchor="middle" x="752.5" y="-208.3" font-family="Helvetica,sans-Serif" font-size="14.00" fill="#000000">value = [0, 5]</text>
</g>
<!-- 21&#45;&gt;27 -->
<g id="edge27" class="edge">
<title>21&#45;&gt;27</title>
<path fill="none" stroke="#000000" d="M631.8752,-299.5143C653.2899,-286.6407 678.0279,-271.7693 699.506,-258.8577"/>
<polygon fill="#000000" stroke="#000000" points="701.4135,-261.7948 708.1807,-253.6428 697.8069,-255.7954 701.4135,-261.7948"/>
</g>
<!-- 23 -->
<g id="node24" class="node">
<title>23</title>
<polygon fill="none" stroke="#000000" points="686,-149.5 587,-149.5 587,-96.5 686,-96.5 686,-149.5"/>
<text text-anchor="middle" x="636.5" y="-134.3" font-family="Helvetica,sans-Serif" font-size="14.00" fill="#000000">gini = 0.0</text>
<text text-anchor="middle" x="636.5" y="-119.3" font-family="Helvetica,sans-Serif" font-size="14.00" fill="#000000">samples = 3</text>
<text text-anchor="middle" x="636.5" y="-104.3" font-family="Helvetica,sans-Serif" font-size="14.00" fill="#000000">value = [3, 0]</text>
</g>
<!-- 22&#45;&gt;23 -->
<g id="edge23" class="edge">
<title>22&#45;&gt;23</title>
<path fill="none" stroke="#000000" d="M634.4823,-192.9465C634.7905,-182.2621 635.132,-170.4254 635.445,-159.5742"/>
<polygon fill="#000000" stroke="#000000" points="638.9445,-159.639 635.7344,-149.5422 631.9474,-159.4371 638.9445,-159.639"/>
</g>
<!-- 24 -->
<g id="node25" class="node">
<title>24</title>
<polygon fill="none" stroke="#000000" points="807,-157 704,-157 704,-89 807,-89 807,-157"/>
<text text-anchor="middle" x="755.5" y="-141.8" font-family="Helvetica,sans-Serif" font-size="14.00" fill="#000000">X[5] &lt;= 23.88</text>
<text text-anchor="middle" x="755.5" y="-126.8" font-family="Helvetica,sans-Serif" font-size="14.00" fill="#000000">gini = 0.444</text>
<text text-anchor="middle" x="755.5" y="-111.8" font-family="Helvetica,sans-Serif" font-size="14.00" fill="#000000">samples = 3</text>
<text text-anchor="middle" x="755.5" y="-96.8" font-family="Helvetica,sans-Serif" font-size="14.00" fill="#000000">value = [1, 2]</text>
</g>
<!-- 22&#45;&gt;24 -->
<g id="edge24" class="edge">
<title>22&#45;&gt;24</title>
<path fill="none" stroke="#000000" d="M673.4474,-192.9465C684.4012,-183.6088 696.3873,-173.3911 707.732,-163.7203"/>
<polygon fill="#000000" stroke="#000000" points="710.1233,-166.2809 715.4629,-157.13 705.5821,-160.9538 710.1233,-166.2809"/>
</g>
<!-- 25 -->
<g id="node26" class="node">
<title>25</title>
<polygon fill="none" stroke="#000000" points="745,-53 646,-53 646,0 745,0 745,-53"/>
<text text-anchor="middle" x="695.5" y="-37.8" font-family="Helvetica,sans-Serif" font-size="14.00" fill="#000000">gini = 0.0</text>
<text text-anchor="middle" x="695.5" y="-22.8" font-family="Helvetica,sans-Serif" font-size="14.00" fill="#000000">samples = 2</text>
<text text-anchor="middle" x="695.5" y="-7.8" font-family="Helvetica,sans-Serif" font-size="14.00" fill="#000000">value = [0, 2]</text>
</g>
<!-- 24&#45;&gt;25 -->
<g id="edge25" class="edge">
<title>24&#45;&gt;25</title>
<path fill="none" stroke="#000000" d="M734.3462,-88.9777C728.8805,-80.187 722.9846,-70.7044 717.4778,-61.8477"/>
<polygon fill="#000000" stroke="#000000" points="720.3837,-59.8927 712.1312,-53.2485 714.4391,-63.5889 720.3837,-59.8927"/>
</g>
<!-- 26 -->
<g id="node27" class="node">
<title>26</title>
<polygon fill="none" stroke="#000000" points="862,-53 763,-53 763,0 862,0 862,-53"/>
<text text-anchor="middle" x="812.5" y="-37.8" font-family="Helvetica,sans-Serif" font-size="14.00" fill="#000000">gini = 0.0</text>
<text text-anchor="middle" x="812.5" y="-22.8" font-family="Helvetica,sans-Serif" font-size="14.00" fill="#000000">samples = 1</text>
<text text-anchor="middle" x="812.5" y="-7.8" font-family="Helvetica,sans-Serif" font-size="14.00" fill="#000000">value = [1, 0]</text>
</g>
<!-- 24&#45;&gt;26 -->
<g id="edge26" class="edge">
<title>24&#45;&gt;26</title>
<path fill="none" stroke="#000000" d="M775.5961,-88.9777C780.7344,-80.2786 786.273,-70.9018 791.4575,-62.1247"/>
<polygon fill="#000000" stroke="#000000" points="794.6281,-63.6387 796.7004,-53.2485 788.601,-60.0786 794.6281,-63.6387"/>
</g>
<!-- 29 -->
<g id="node30" class="node">
<title>29</title>
<polygon fill="none" stroke="#000000" points="785,-573 674,-573 674,-505 785,-505 785,-573"/>
<text text-anchor="middle" x="729.5" y="-557.8" font-family="Helvetica,sans-Serif" font-size="14.00" fill="#000000">X[0] &lt;= 16.113</text>
<text text-anchor="middle" x="729.5" y="-542.8" font-family="Helvetica,sans-Serif" font-size="14.00" fill="#000000">gini = 0.408</text>
<text text-anchor="middle" x="729.5" y="-527.8" font-family="Helvetica,sans-Serif" font-size="14.00" fill="#000000">samples = 7</text>
<text text-anchor="middle" x="729.5" y="-512.8" font-family="Helvetica,sans-Serif" font-size="14.00" fill="#000000">value = [5, 2]</text>
</g>
<!-- 28&#45;&gt;29 -->
<g id="edge29" class="edge">
<title>28&#45;&gt;29</title>
<path fill="none" stroke="#000000" d="M729.5,-608.9465C729.5,-600.776 729.5,-591.9318 729.5,-583.3697"/>
<polygon fill="#000000" stroke="#000000" points="733.0001,-583.13 729.5,-573.13 726.0001,-583.13 733.0001,-583.13"/>
</g>
<!-- 34 -->
<g id="node35" class="node">
<title>34</title>
<polygon fill="none" stroke="#000000" points="993,-573 886,-573 886,-505 993,-505 993,-573"/>
<text text-anchor="middle" x="939.5" y="-557.8" font-family="Helvetica,sans-Serif" font-size="14.00" fill="#000000">X[2] &lt;= 2.49</text>
<text text-anchor="middle" x="939.5" y="-542.8" font-family="Helvetica,sans-Serif" font-size="14.00" fill="#000000">gini = 0.153</text>
<text text-anchor="middle" x="939.5" y="-527.8" font-family="Helvetica,sans-Serif" font-size="14.00" fill="#000000">samples = 24</text>
<text text-anchor="middle" x="939.5" y="-512.8" font-family="Helvetica,sans-Serif" font-size="14.00" fill="#000000">value = [2, 22]</text>
</g>
<!-- 28&#45;&gt;34 -->
<g id="edge34" class="edge">
<title>28&#45;&gt;34</title>
<path fill="none" stroke="#000000" d="M787.7178,-614.1683C815.4289,-600.4448 848.6043,-584.015 876.8619,-570.0208"/>
<polygon fill="#000000" stroke="#000000" points="878.4425,-573.1438 885.8505,-565.5693 875.3359,-566.8709 878.4425,-573.1438"/>
</g>
<!-- 30 -->
<g id="node31" class="node">
<title>30</title>
<polygon fill="none" stroke="#000000" points="755,-469 644,-469 644,-401 755,-401 755,-469"/>
<text text-anchor="middle" x="699.5" y="-453.8" font-family="Helvetica,sans-Serif" font-size="14.00" fill="#000000">X[2] &lt;= 10.543</text>
<text text-anchor="middle" x="699.5" y="-438.8" font-family="Helvetica,sans-Serif" font-size="14.00" fill="#000000">gini = 0.278</text>
<text text-anchor="middle" x="699.5" y="-423.8" font-family="Helvetica,sans-Serif" font-size="14.00" fill="#000000">samples = 6</text>
<text text-anchor="middle" x="699.5" y="-408.8" font-family="Helvetica,sans-Serif" font-size="14.00" fill="#000000">value = [5, 1]</text>
</g>
<!-- 29&#45;&gt;30 -->
<g id="edge30" class="edge">
<title>29&#45;&gt;30</title>
<path fill="none" stroke="#000000" d="M719.6769,-504.9465C717.2682,-496.5965 714.6566,-487.5427 712.1362,-478.8056"/>
<polygon fill="#000000" stroke="#000000" points="715.4798,-477.7681 709.3452,-469.13 708.754,-479.7083 715.4798,-477.7681"/>
</g>
<!-- 33 -->
<g id="node34" class="node">
<title>33</title>
<polygon fill="none" stroke="#000000" points="872,-461.5 773,-461.5 773,-408.5 872,-408.5 872,-461.5"/>
<text text-anchor="middle" x="822.5" y="-446.3" font-family="Helvetica,sans-Serif" font-size="14.00" fill="#000000">gini = 0.0</text>
<text text-anchor="middle" x="822.5" y="-431.3" font-family="Helvetica,sans-Serif" font-size="14.00" fill="#000000">samples = 1</text>
<text text-anchor="middle" x="822.5" y="-416.3" font-family="Helvetica,sans-Serif" font-size="14.00" fill="#000000">value = [0, 1]</text>
</g>
<!-- 29&#45;&gt;33 -->
<g id="edge33" class="edge">
<title>29&#45;&gt;33</title>
<path fill="none" stroke="#000000" d="M759.9517,-504.9465C770.1955,-493.491 781.6238,-480.711 791.8805,-469.2412"/>
<polygon fill="#000000" stroke="#000000" points="794.7083,-471.3295 798.7652,-461.5422 789.4903,-466.6634 794.7083,-471.3295"/>
</g>
<!-- 31 -->
<g id="node32" class="node">
<title>31</title>
<polygon fill="none" stroke="#000000" points="749,-357.5 650,-357.5 650,-304.5 749,-304.5 749,-357.5"/>
<text text-anchor="middle" x="699.5" y="-342.3" font-family="Helvetica,sans-Serif" font-size="14.00" fill="#000000">gini = 0.0</text>
<text text-anchor="middle" x="699.5" y="-327.3" font-family="Helvetica,sans-Serif" font-size="14.00" fill="#000000">samples = 5</text>
<text text-anchor="middle" x="699.5" y="-312.3" font-family="Helvetica,sans-Serif" font-size="14.00" fill="#000000">value = [5, 0]</text>
</g>
<!-- 30&#45;&gt;31 -->
<g id="edge31" class="edge">
<title>30&#45;&gt;31</title>
<path fill="none" stroke="#000000" d="M699.5,-400.9465C699.5,-390.2621 699.5,-378.4254 699.5,-367.5742"/>
<polygon fill="#000000" stroke="#000000" points="703.0001,-367.5421 699.5,-357.5422 696.0001,-367.5422 703.0001,-367.5421"/>
</g>
<!-- 32 -->
<g id="node33" class="node">
<title>32</title>
<polygon fill="none" stroke="#000000" points="866,-357.5 767,-357.5 767,-304.5 866,-304.5 866,-357.5"/>
<text text-anchor="middle" x="816.5" y="-342.3" font-family="Helvetica,sans-Serif" font-size="14.00" fill="#000000">gini = 0.0</text>
<text text-anchor="middle" x="816.5" y="-327.3" font-family="Helvetica,sans-Serif" font-size="14.00" fill="#000000">samples = 1</text>
<text text-anchor="middle" x="816.5" y="-312.3" font-family="Helvetica,sans-Serif" font-size="14.00" fill="#000000">value = [0, 1]</text>
</g>
<!-- 30&#45;&gt;32 -->
<g id="edge32" class="edge">
<title>30&#45;&gt;32</title>
<path fill="none" stroke="#000000" d="M737.8102,-400.9465C751.0694,-389.1606 765.9058,-375.9726 779.0916,-364.2519"/>
<polygon fill="#000000" stroke="#000000" points="781.4912,-366.8018 786.6401,-357.5422 776.8407,-361.5699 781.4912,-366.8018"/>
</g>
<!-- 35 -->
<g id="node36" class="node">
<title>35</title>
<polygon fill="none" stroke="#000000" points="989,-461.5 890,-461.5 890,-408.5 989,-408.5 989,-461.5"/>
<text text-anchor="middle" x="939.5" y="-446.3" font-family="Helvetica,sans-Serif" font-size="14.00" fill="#000000">gini = 0.0</text>
<text text-anchor="middle" x="939.5" y="-431.3" font-family="Helvetica,sans-Serif" font-size="14.00" fill="#000000">samples = 1</text>
<text text-anchor="middle" x="939.5" y="-416.3" font-family="Helvetica,sans-Serif" font-size="14.00" fill="#000000">value = [1, 0]</text>
</g>
<!-- 34&#45;&gt;35 -->
<g id="edge35" class="edge">
<title>34&#45;&gt;35</title>
<path fill="none" stroke="#000000" d="M939.5,-504.9465C939.5,-494.2621 939.5,-482.4254 939.5,-471.5742"/>
<polygon fill="#000000" stroke="#000000" points="943.0001,-471.5421 939.5,-461.5422 936.0001,-471.5422 943.0001,-471.5421"/>
</g>
<!-- 36 -->
<g id="node37" class="node">
<title>36</title>
<polygon fill="none" stroke="#000000" points="1118,-469 1007,-469 1007,-401 1118,-401 1118,-469"/>
<text text-anchor="middle" x="1062.5" y="-453.8" font-family="Helvetica,sans-Serif" font-size="14.00" fill="#000000">X[1] &lt;= 10.761</text>
<text text-anchor="middle" x="1062.5" y="-438.8" font-family="Helvetica,sans-Serif" font-size="14.00" fill="#000000">gini = 0.083</text>
<text text-anchor="middle" x="1062.5" y="-423.8" font-family="Helvetica,sans-Serif" font-size="14.00" fill="#000000">samples = 23</text>
<text text-anchor="middle" x="1062.5" y="-408.8" font-family="Helvetica,sans-Serif" font-size="14.00" fill="#000000">value = [1, 22]</text>
</g>
<!-- 34&#45;&gt;36 -->
<g id="edge36" class="edge">
<title>34&#45;&gt;36</title>
<path fill="none" stroke="#000000" d="M979.7748,-504.9465C990.8184,-495.6088 1002.9028,-485.3911 1014.3404,-475.7203"/>
<polygon fill="#000000" stroke="#000000" points="1016.7583,-478.2594 1022.1347,-469.13 1012.2386,-472.914 1016.7583,-478.2594"/>
</g>
<!-- 37 -->
<g id="node38" class="node">
<title>37</title>
<polygon fill="none" stroke="#000000" points="1054,-365 947,-365 947,-297 1054,-297 1054,-365"/>
<text text-anchor="middle" x="1000.5" y="-349.8" font-family="Helvetica,sans-Serif" font-size="14.00" fill="#000000">X[8] &lt;= &#45;3.595</text>
<text text-anchor="middle" x="1000.5" y="-334.8" font-family="Helvetica,sans-Serif" font-size="14.00" fill="#000000">gini = 0.32</text>
<text text-anchor="middle" x="1000.5" y="-319.8" font-family="Helvetica,sans-Serif" font-size="14.00" fill="#000000">samples = 5</text>
<text text-anchor="middle" x="1000.5" y="-304.8" font-family="Helvetica,sans-Serif" font-size="14.00" fill="#000000">value = [1, 4]</text>
</g>
<!-- 36&#45;&gt;37 -->
<g id="edge37" class="edge">
<title>36&#45;&gt;37</title>
<path fill="none" stroke="#000000" d="M1042.1989,-400.9465C1037.0604,-392.3271 1031.4749,-382.9579 1026.1114,-373.9611"/>
<polygon fill="#000000" stroke="#000000" points="1028.9737,-371.9272 1020.8467,-365.13 1022.9611,-375.5117 1028.9737,-371.9272"/>
</g>
<!-- 40 -->
<g id="node41" class="node">
<title>40</title>
<polygon fill="none" stroke="#000000" points="1179,-357.5 1072,-357.5 1072,-304.5 1179,-304.5 1179,-357.5"/>
<text text-anchor="middle" x="1125.5" y="-342.3" font-family="Helvetica,sans-Serif" font-size="14.00" fill="#000000">gini = 0.0</text>
<text text-anchor="middle" x="1125.5" y="-327.3" font-family="Helvetica,sans-Serif" font-size="14.00" fill="#000000">samples = 18</text>
<text text-anchor="middle" x="1125.5" y="-312.3" font-family="Helvetica,sans-Serif" font-size="14.00" fill="#000000">value = [0, 18]</text>
</g>
<!-- 36&#45;&gt;40 -->
<g id="edge40" class="edge">
<title>36&#45;&gt;40</title>
<path fill="none" stroke="#000000" d="M1083.1286,-400.9465C1089.8678,-389.8215 1097.3637,-377.4473 1104.1545,-366.237"/>
<polygon fill="#000000" stroke="#000000" points="1107.2339,-367.9087 1109.4216,-357.5422 1101.2467,-364.2818 1107.2339,-367.9087"/>
</g>
<!-- 38 -->
<g id="node39" class="node">
<title>38</title>
<polygon fill="none" stroke="#000000" points="991,-253.5 892,-253.5 892,-200.5 991,-200.5 991,-253.5"/>
<text text-anchor="middle" x="941.5" y="-238.3" font-family="Helvetica,sans-Serif" font-size="14.00" fill="#000000">gini = 0.0</text>
<text text-anchor="middle" x="941.5" y="-223.3" font-family="Helvetica,sans-Serif" font-size="14.00" fill="#000000">samples = 1</text>
<text text-anchor="middle" x="941.5" y="-208.3" font-family="Helvetica,sans-Serif" font-size="14.00" fill="#000000">value = [1, 0]</text>
</g>
<!-- 37&#45;&gt;38 -->
<g id="edge38" class="edge">
<title>37&#45;&gt;38</title>
<path fill="none" stroke="#000000" d="M981.1812,-296.9465C974.9324,-285.9316 967.9888,-273.6922 961.6793,-262.5703"/>
<polygon fill="#000000" stroke="#000000" points="964.5362,-260.513 956.5576,-253.5422 958.4477,-263.967 964.5362,-260.513"/>
</g>
<!-- 39 -->
<g id="node40" class="node">
<title>39</title>
<polygon fill="none" stroke="#000000" points="1108,-253.5 1009,-253.5 1009,-200.5 1108,-200.5 1108,-253.5"/>
<text text-anchor="middle" x="1058.5" y="-238.3" font-family="Helvetica,sans-Serif" font-size="14.00" fill="#000000">gini = 0.0</text>
<text text-anchor="middle" x="1058.5" y="-223.3" font-family="Helvetica,sans-Serif" font-size="14.00" fill="#000000">samples = 4</text>
<text text-anchor="middle" x="1058.5" y="-208.3" font-family="Helvetica,sans-Serif" font-size="14.00" fill="#000000">value = [0, 4]</text>
</g>
<!-- 37&#45;&gt;39 -->
<g id="edge39" class="edge">
<title>37&#45;&gt;39</title>
<path fill="none" stroke="#000000" d="M1019.4914,-296.9465C1025.6343,-285.9316 1032.4601,-273.6922 1038.6627,-262.5703"/>
<polygon fill="#000000" stroke="#000000" points="1041.8837,-263.9806 1043.6976,-253.5422 1035.7701,-260.5711 1041.8837,-263.9806"/>
</g>
</g>
</svg>
